<svg width="117" height="106" viewBox="0 0 117 106" fill="none" xmlns="http://www.w3.org/2000/svg">
<line x1="19" y1="67.5" x2="48" y2="67.5" stroke="white" stroke-width="5"/>
<line x1="19" y1="67.5" x2="48" y2="67.5" stroke="white" stroke-width="5"/>
<circle cx="11" cy="11" r="9.5" transform="matrix(1 0 0 -1 0 78)" fill="white" stroke="white" stroke-width="3"/>
<circle cx="11" cy="11" r="9.5" transform="matrix(1 0 0 -1 47 78)" stroke="white" stroke-width="3"/>
<line x1="67" y1="67.5" x2="96" y2="67.5" stroke="white" stroke-width="5"/>
<line x1="67" y1="67.5" x2="96" y2="67.5" stroke="white" stroke-width="5"/>
<circle cx="11" cy="11" r="9.5" transform="matrix(1 0 0 -1 95 78)" stroke="white" stroke-width="3"/>
<line x1="67" y1="95.5" x2="96" y2="95.5" stroke="white" stroke-width="5"/>
<line x1="67" y1="95.5" x2="96" y2="95.5" stroke="white" stroke-width="5"/>
<circle cx="11" cy="11" r="9.5" transform="matrix(1 0 0 -1 95 106)" stroke="white" stroke-width="3"/>
<circle cx="11" cy="11" r="9.5" transform="matrix(0 1 1 0 47 28)" stroke="white" stroke-width="3"/>
<circle cx="11" cy="11" r="9.5" transform="matrix(0 1 1 0 47 83)" stroke="white" stroke-width="3"/>
<line x1="16.8029" y1="59.8053" x2="49.8029" y2="41.8053" stroke="white" stroke-width="5"/>
<line x1="67" y1="39.5" x2="96" y2="39.5" stroke="white" stroke-width="5"/>
<line x1="67" y1="39.5" x2="96" y2="39.5" stroke="white" stroke-width="5"/>
<circle cx="11" cy="11" r="9.5" transform="matrix(1 0 0 -1 95 50)" stroke="white" stroke-width="3"/>
<circle cx="11" cy="11" r="9.5" transform="matrix(0 1 1 0 95 0)" stroke="white" stroke-width="3"/>
<line x1="64.8029" y1="31.8053" x2="97.8029" y2="13.8053" stroke="white" stroke-width="5"/>
<line y1="-2.5" x2="37.5899" y2="-2.5" transform="matrix(0.877896 0.478852 0.478852 -0.877896 18 72)" stroke="white" stroke-width="5"/>
</svg>
